<?xml version="1.0" encoding="utf-8"?>
<!-- Generator: Adobe Illustrator 27.4.0, SVG Export Plug-In . SVG Version: 6.00 Build 0)  -->
<svg version="1.1" xmlns="http://www.w3.org/2000/svg" xmlns:xlink="http://www.w3.org/1999/xlink" x="0px" y="0px"
	 viewBox="0 0 942.64 1474.19" style="enable-background:new 0 0 942.64 1474.19;" xml:space="preserve">
<style type="text/css">
	.st0{fill:url(#SVGID_1_);}
	.st1{fill:#28112B;}
	.st2{fill:#D8BFAA;}
	.st3{fill:url(#SVGID_00000101784368572307791190000011778593691374325174_);}
	.st4{stroke:#352D39;stroke-miterlimit:10;}
	.st5{fill:url(#SVGID_00000144337114844354271920000004635061454247060096_);}
	.st6{fill:url(#SVGID_00000004532013922192920860000007121213547255464577_);}
	.st7{fill:url(#SVGID_00000136384174968261516490000017350060318250930824_);}
	.st8{fill:url(#SVGID_00000119839312555351575720000008014354574915860910_);}
	.st9{fill:url(#SVGID_00000024716944803425426170000012379837887518352519_);}
	.st10{fill:#453643;}
	.st11{fill:url(#SVGID_00000101813029756291105490000001434114661620130439_);}
	.st12{fill:url(#SVGID_00000170978381492717944150000009107768584081109641_);}
	.st13{fill:url(#SVGID_00000180338314277215401820000002558660000548415901_);}
	.st14{fill:url(#SVGID_00000097480352955807555910000012451142168357197742_);}
</style>
<g id="Лицо">
	<linearGradient id="SVGID_1_" gradientUnits="userSpaceOnUse" x1="333.7872" y1="275.8092" x2="333.7872" y2="368.5327">
		<stop  offset="0.3652" style="stop-color:#D8AB7F"/>
		<stop  offset="0.4864" style="stop-color:#D8B390"/>
		<stop  offset="0.6591" style="stop-color:#D8BCA3"/>
		<stop  offset="0.7799" style="stop-color:#D8BFAA"/>
	</linearGradient>
	<polygon class="st0" points="302.98,340.58 305.36,356.92 305.36,370.19 371.74,339.89 366.19,311.3 337.7,270.45 295.83,305.17 	
		"/>
	<path class="st1" d="M268.6,221.23l4.09,1.9l53.85-1.67l14.24,9.16l-3.06,39.83c0,0,10.55,0.34,11.23,0
		c0.68-0.34,4.77-8.51,4.77-8.51s4.77,1.02,5.11,2.04c0.34,1.02,0,10.21,0,10.21l-11.23,10.55c-0.52,1.89-1.02,4.38-1.11,7.32
		c-0.08,2.61,0.18,4.86,0.51,6.64c1.11,2.21,2.21,4.43,3.32,6.64c0.69,1.31,1.78,3.08,3.46,4.88c1.88,2.02,3.63,3.15,5.2,4.15
		c2.58,1.63,7.66,4.4,8.48,3.38c0.15-0.19,0.23-0.6-0.31-1.62c-0.5-5.64-1-11.27-1.51-16.91c4.65-7.32,9.3-14.64,13.96-21.96
		c1.99-10.55,3.97-21.11,5.96-31.66c-0.77-5.53-1.53-11.06-2.3-16.6c-0.52-4.32-1.89-10.82-6.13-17.11
		c-13.86-20.56-49.25-25.28-49.28-25.19c0,0,0,0,0,0c-0.06,1.24-13.52,0.74-13.52,0.74c-4.54-0.17-11.03,0.06-19.16,1.99
		c-4.58,0.52-11.97,2.11-18.89,7.4c-3.51,2.69-7.72,5.9-9.19,11.74C265.62,214.32,267.66,219.29,268.6,221.23z"/>
	<path class="st2" d="M348.14,295.22c-4.5,8.2-9,16.39-13.5,24.59c-3.92,1.61-9.64,3.72-16.76,5.49
		c-11.39,2.82-20.57,3.33-28.18,3.7c-4.76,0.24-11.14,0.37-18.72,0c-0.6-5.67-0.93-12.19-0.68-19.4c0.22-6.49,0.88-12.38,1.72-17.55
		c-4.09-1.3-8.18-2.6-12.28-3.89c-1.36-2.95-2.72-5.9-4.09-8.85c3.55-4.37,7.11-8.75,10.66-13.12c2.08-2.8,4.16-5.6,6.23-8.4
		c-1.07-5.68-2.13-11.36-3.2-17.03c0.02-2.64,0.29-6.08,1.28-9.96c1.09-4.32,2.7-7.75,4.09-10.21c10.33,1.31,18.69,1.2,24.51,0.85
		c4.84-0.29,12.33-0.19,27.3,0.03c2.15,0.03,6.19,0.15,9.72,2.86c2.59,2,3.88,4.61,4.52,6.3c-0.23,6.35-0.45,12.71-0.68,19.06
		c-0.45,6.35-0.91,12.71-1.36,19.06c2.61-0.23,5.22-0.45,7.83-0.68c-0.37-4.01,1.35-7.74,4.43-9.53c2.37-1.38,4.81-1.17,5.79-1.02
		c0.78,0.03,4.25,0.26,6.81,3.06c1.37,1.5,1.92,3.11,2.15,4.03c0.35,1.8,2.01,11.39-4.19,19.8c-3.36,4.55-7.58,6.78-9.87,7.78
		C350.49,293.19,349.31,294.2,348.14,295.22z"/>
	
		<linearGradient id="SVGID_00000137811988454620602590000015584224020084081300_" gradientUnits="userSpaceOnUse" x1="295.1107" y1="248.3725" x2="295.1107" y2="280.1595">
		<stop  offset="0.3652" style="stop-color:#D8AB7F"/>
		<stop  offset="0.4864" style="stop-color:#D8B390"/>
		<stop  offset="0.6591" style="stop-color:#D8BCA3"/>
		<stop  offset="0.7799" style="stop-color:#D8BFAA"/>
	</linearGradient>
	<path style="fill:url(#SVGID_00000137811988454620602590000015584224020084081300_);" d="M312.28,251.54
		c-4.69,3.85-11.56,9.75-19.43,17.55c-7.71,7.64-11.82,12.59-14.04,11.49c-1.44-0.72-0.9-3.39,0.26-16.85
		c1.07-12.47,1.04-15.21,3.32-16.6c2.77-1.68,5.79,0.54,13.42,2.45C302.53,251.26,308.31,251.56,312.28,251.54z"/>
	<path class="st1" d="M284.17,245.6c-1.92-0.46-3.77,0.88-3.98,2.64c-0.2,1.66,1.11,3.32,2.96,3.49c7.74-0.09,15.49-0.17,23.23-0.26
		c3.64,0.19,7.79,0.25,7.91-0.51c0.18-1.06-7.62-3.17-8.17-3.32C301.15,246.31,293.81,245.01,284.17,245.6z"/>
	<path class="st1" d="M417.7,295.89"/>
</g>
<g id="Левая_Нога">
	<path class="st4" d="M318.25,1288.23c-37.71,7.42-49.4,5.34-51.32,0.77c-0.94-2.25-0.23-6.8-3.83-10.72
		c-0.39-0.42-3.61-3.87-6.13-3.06c-3.67,1.17-2.92,10.42-3.83,13.79c-2.36,8.75-25.99,14.97-111.06,7.66
		c1.33-7.93,2.66-15.87,3.98-23.8c42.54-11.85,58.15-20.98,63.6-27.58c0.82-1,3.77-4.79,9.01-7.59c8.41-4.49,17.03-3.37,19.91-3.06
		c11.79,1.27,33.2,0.4,67.4-3.06C310.08,1250.44,314.17,1269.34,318.25,1288.23z"/>
	
		<linearGradient id="SVGID_00000176738481440452885910000013537050123017678751_" gradientUnits="userSpaceOnUse" x1="205.3494" y1="1018.8682" x2="354.2666" y2="1018.8682">
		<stop  offset="0.0377" style="stop-color:#453643"/>
		<stop  offset="0.4927" style="stop-color:#423441"/>
		<stop  offset="0.8417" style="stop-color:#382E3A"/>
		<stop  offset="1" style="stop-color:#312A35"/>
	</linearGradient>
	<path style="fill:url(#SVGID_00000176738481440452885910000013537050123017678751_);" d="M313.64,1268.22
		c-34.47-1.53-68.93-3.06-103.4-4.6c-8.66-99.1-4.33-176.57,1.53-229.78c4.87-44.21,13.4-95.12,21.18-141.77
		c8.47-50.78,16.38-92.9,22.17-122.57c33.05,1.58,66.1,3.15,99.15,4.73c-13.81,94.72-25.07,195.99-32.34,303.27
		C317.48,1143.3,314.82,1206.93,313.64,1268.22z"/>
</g>
<g id="Нога_правая">
	<path class="st4" d="M472.95,1301.66c-37.71,7.42-49.4,5.34-51.32,0.77c-0.94-2.25-0.23-6.8-3.83-10.72
		c-0.39-0.42-3.61-3.87-6.13-3.06c-3.67,1.17-2.92,10.42-3.83,13.79c-2.36,8.75-25.99,14.97-111.06,7.66
		c1.33-7.93,2.66-15.87,3.98-23.8c42.54-11.85,58.15-20.98,63.6-27.58c0.82-1,3.77-4.79,9.01-7.59c8.41-4.49,17.03-3.37,19.91-3.06
		c11.79,1.27,33.2,0.4,67.4-3.06C464.78,1263.88,468.87,1282.77,472.95,1301.66z"/>
	
		<linearGradient id="SVGID_00000155831107833964147370000000621730595347765669_" gradientUnits="userSpaceOnUse" x1="387.1989" y1="987.5742" x2="387.1989" y2="988.2971">
		<stop  offset="0" style="stop-color:#453643"/>
		<stop  offset="0.0166" style="stop-color:#453643"/>
		<stop  offset="0.0194" style="stop-color:#453643"/>
	</linearGradient>
	<path style="fill:url(#SVGID_00000155831107833964147370000000621730595347765669_);" d="M471.42,1257.24
		c-39.06-1.02-78.12-2.04-117.19-3.06c-9.7-40.33-21.29-93.95-31.4-157.78c-4.35-27.48-10.33-65.62-14.55-112.59
		c-4.64-51.69-7.83-121.57-2.59-205.51c36.01-3,72.02-6.01,108.02-9.01c-7.08,103.02,1.53,181.67,11.37,236.01
		c3.64,20.11,7.38,37.23,17.07,87.3C455.74,1162.87,465.4,1220.02,471.42,1257.24z"/>
</g>
<g id="Леввая_рука">
	
		<linearGradient id="SVGID_00000099659716222218363780000004219366530732131227_" gradientUnits="userSpaceOnUse" x1="221.0406" y1="915.0629" x2="221.0406" y2="760.8286" gradientTransform="matrix(0.9901 0.1402 -0.1402 0.9901 112.1412 -27.6394)">
		<stop  offset="0.4196" style="stop-color:#D8BFAA"/>
		<stop  offset="0.9974" style="stop-color:#D8AB7F"/>
	</linearGradient>
	<path style="fill:url(#SVGID_00000099659716222218363780000004219366530732131227_);" d="M220.66,868.58
		c-1.61-11.74,2.02-21.35,1.66-21.43c-0.28-0.06-2.1,5.47-3.17,12.54c-1.03,6.82-1.89,12.46-0.31,19.29
		c1.14,4.92,2.46,5.75,2.95,10.73c0.11,1.09,0.96,10.33-1.96,11.41c-2.67,0.99-7.95-5.03-10.85-10.82
		c-1.58-3.17-2.88-8.06-3.3-25.22c-0.29-11.82,0.96-19.13,0.65-19.16c-0.38-0.04-3.25,10.73-2.38,24.07
		c0.87,13.35,3.06,19.69,3.06,19.69c0.98,3.27,2.37,7.01,1.54,11.91c-0.56,3.28-2.25,7.91-4.36,7.98
		c-2.29,0.07-4.22-5.29-6.08-10.49c-2-5.58-2.82-10.06-3.28-12.14c-0.53-2.42-2.37-11.06-3.41-23.19
		c-0.43-5.02-0.8-11.47-0.75-19.02c0,0,0,0,0-0.01c-0.03-0.01-0.61,11.45-0.74,23.26c-0.08,7.9-0.77,9.59,0.06,13.1
		c0.84,3.55,1.91,4.84,2.8,9.34c0.41,2.04,1.92,9.63-0.06,10.55c-1.92,0.89-6.65-4.73-9.43-9.14c-1.89-3.01-5.35-9.71-6.82-22.28
		c-0.97-8.37,0.12-14.97,0.46-20.22c0.94-14.54,4.44-37.07,17.31-60.8c5.58-10.3,11.77-18.7,17.52-25.37
		c12.43-0.99,24.85-1.99,37.28-2.98c1.77,3.35,2.58,6.18,2.99,7.99c1.98,8.67-0.78,13.56-1.17,27.68c-0.03,1.15-0.04,2.14-0.04,3
		c0.01,2.61,0.08,4.51,0.09,4.66c1,26.8-9.84,41.45-9.84,41.45c-2.08,2.8-3.47,3.9-5.06,7.23c-2.44,5.12-2.79,10.15-3.02,14.01
		c-0.33,5.55,0.44,6.27-0.18,10.98c-0.39,2.99-1.3,9.85-3.5,10.16C226.65,887.73,221.99,878.26,220.66,868.58z"/>
	
		<linearGradient id="SVGID_00000036948490112810833550000000441108585506156163_" gradientUnits="userSpaceOnUse" x1="264.8385" y1="385.9734" x2="264.8385" y2="783.2603" gradientTransform="matrix(0.9694 0.2453 -0.2453 0.9694 157.6906 -42.4565)">
		<stop  offset="9.166697e-03" style="stop-color:#788475"/>
		<stop  offset="0.1555" style="stop-color:#676964"/>
		<stop  offset="0.3238" style="stop-color:#585355"/>
		<stop  offset="0.5059" style="stop-color:#4D434B"/>
		<stop  offset="0.7098" style="stop-color:#473945"/>
		<stop  offset="0.9806" style="stop-color:#453643"/>
	</linearGradient>
	<path style="fill:url(#SVGID_00000036948490112810833550000000441108585506156163_);" d="M251.03,787.91
		c-23.7-3.87-53.2-10.8-54.26-22.86c-0.15-1.71,0.33-3.01,0.59-3.71c9.92-27.06,31.36-102.54,33.26-109.22
		c4.9-17.27,8.21-25.65,10.68-36.88c2.39-10.88,5.68-28.9,6.63-81.47c0.85-47.07-1.28-61.23,3.96-92.31
		c1.82-10.83,3.86-19.65,5.3-25.44c6.66-13.98,20.12-23.36,35.12-24.3c17.45-1.09,34.14,9.42,41.29,26.25
		c4.67,52.55,2.73,95.94-0.26,127.11c-2.22,23.23-4.06,41.64-10.21,66.19c-6.85,27.36-14.19,42.91-38.93,99.71
		C276.93,727.66,265.37,754.31,251.03,787.91z"/>
</g>
<g id="Туловище">
	
		<linearGradient id="SVGID_00000116202866434945286740000008821662290713920141_" gradientUnits="userSpaceOnUse" x1="350.9293" y1="360.2328" x2="350.9293" y2="788.4927">
		<stop  offset="9.166697e-03" style="stop-color:#788475"/>
		<stop  offset="1" style="stop-color:#453643"/>
	</linearGradient>
	<path style="fill:url(#SVGID_00000116202866434945286740000008821662290713920141_);" d="M413.21,796.16
		c-52.69-5.95-105.38-11.9-158.07-17.85c-0.04-46.14-1-83.92-1.86-109.9c-2.74-82.42-7.01-125.65-2.04-194.04
		c1.82-25.06,4.42-45.21,6.13-57.19c7.29-12.78,21.97-34.64,47.99-53.45c24.91-18,49.12-25.17,63.32-28.26
		c8.34,9.49,21.63,23.6,39.83,38.81c20.4,17.05,30.22,21.5,37.79,34.72c8.59,15.01,7.17,29.14,4.8,56.98
		c-8.22,96.41-5.47,80.05-7.86,96.22c-7.56,51.14-12.79,66.36-18.75,100.95C419.19,693.87,413.36,739.07,413.21,796.16z"/>
	<path class="st10" d="M425.87,397.77c-8.94,2.17-17.88,4.34-26.83,6.52c-10.33-14.7-20.65-29.4-30.98-44.1
		c4.29-1.43,8.58-2.86,12.87-4.29C395.91,369.85,410.89,383.81,425.87,397.77z"/>
	<path class="st10" d="M265.88,409.25c11.57-11.22,23.14-22.44,34.71-33.65c-2.59-0.52-5.19-1.05-7.78-1.57
		c-11.02,8.01-22.05,16.03-33.07,24.04C261.79,401.8,263.84,405.52,265.88,409.25z"/>
	
		<linearGradient id="SVGID_00000079453590680066877820000010324224435468688564_" gradientUnits="userSpaceOnUse" x1="336.4281" y1="370.9721" x2="336.4281" y2="776.606">
		<stop  offset="9.166697e-03" style="stop-color:#788475"/>
		<stop  offset="0.0716" style="stop-color:#676964"/>
		<stop  offset="0.1434" style="stop-color:#585355"/>
		<stop  offset="0.2211" style="stop-color:#4D434B"/>
		<stop  offset="0.3081" style="stop-color:#473945"/>
		<stop  offset="0.4236" style="stop-color:#453643"/>
		<stop  offset="0.7503" style="stop-color:#453643"/>
	</linearGradient>
	<path style="fill:url(#SVGID_00000079453590680066877820000010324224435468688564_);" d="M346.89,371.55
		c-15.3,9.19-28.75,14-32.68,26.89c-0.36,1.19-4.17,36.62-4.53,40.17c-7.95,79.16-4.08,159.08-3.98,238.64
		c0.11,93.17-2.72,106.5-1.33,106.61c7.03,0.56-2.44-350.97-1.28-376.92c0.13-2.89,0.78-10.53-3.86-16.33
		c-2.62-3.28-6.52-5.46-6.13-6.13c0.24-0.4,1.76,0.18,6.81,1.36c3.94,0.92,4.52,0.92,5.13,0.65c1.58-0.7,3.96-15.29,4.03-20.58
		c0.03,3.05,2.69,19.41,3.78,20.27c4.47,3.5,50.46-28.77,66.93-38.68C366.9,358.76,355.38,366.46,346.89,371.55z"/>
	
		<linearGradient id="SVGID_00000008835155124692231930000003050270952364224182_" gradientUnits="userSpaceOnUse" x1="710.3867" y1="714.9702" x2="710.3867" y2="714.9702">
		<stop  offset="9.166697e-03" style="stop-color:#788475"/>
		<stop  offset="0.0716" style="stop-color:#676964"/>
		<stop  offset="0.1434" style="stop-color:#585355"/>
		<stop  offset="0.2211" style="stop-color:#4D434B"/>
		<stop  offset="0.3081" style="stop-color:#473945"/>
		<stop  offset="0.4236" style="stop-color:#453643"/>
		<stop  offset="0.7503" style="stop-color:#453643"/>
	</linearGradient>
	<path style="fill:url(#SVGID_00000008835155124692231930000003050270952364224182_);" d="M710.39,714.97"/>
</g>
<g id="Правая_рука">
	
		<linearGradient id="SVGID_00000112615650506771091460000009159287921678450333_" gradientUnits="userSpaceOnUse" x1="433.8996" y1="933.9584" x2="433.8996" y2="779.7242">
		<stop  offset="0.4196" style="stop-color:#D8BFAA"/>
		<stop  offset="0.9974" style="stop-color:#D8AB7F"/>
	</linearGradient>
	<path style="fill:url(#SVGID_00000112615650506771091460000009159287921678450333_);" d="M445.96,891.04
		c-3.24-11.4-0.99-21.42-1.36-21.45c-0.28-0.02-1.31,5.71-1.38,12.86c-0.07,6.9-0.12,12.6,2.4,19.14c1.82,4.72,3.24,5.35,4.43,10.21
		c0.26,1.06,2.4,10.09-0.34,11.57c-2.5,1.35-8.58-3.87-12.26-9.19c-2.01-2.91-3.98-7.58-6.81-24.51
		c-1.95-11.66-1.73-19.07-2.04-19.06c-0.39,0.01-1.71,11.08,1.02,24.17c2.74,13.1,5.79,19.06,5.79,19.06
		c1.43,3.1,3.33,6.61,3.19,11.58c-0.09,3.33-1.12,8.15-3.19,8.51c-2.26,0.39-4.92-4.65-7.49-9.53c-2.76-5.24-4.2-9.56-4.95-11.56
		c-0.86-2.32-3.89-10.61-6.63-22.48c-1.13-4.91-2.4-11.25-3.4-18.72c0,0,0,0,0,0c-0.03,0,1,11.42,2.53,23.13
		c1.02,7.83,0.58,9.61,1.89,12.96c1.33,3.4,2.57,4.53,4.09,8.85c0.69,1.96,3.26,9.27,1.42,10.45c-1.78,1.15-7.25-3.75-10.61-7.73
		c-2.29-2.71-6.66-8.87-9.87-21.11c-2.14-8.15-1.98-14.84-2.38-20.09c-1.11-14.53-0.8-37.32,8.61-62.63
		c4.08-10.98,9.04-20.17,13.79-27.57c12.16-2.73,24.33-5.45,36.49-8.18c2.22,3.07,3.42,5.76,4.09,7.49
		c3.18,8.31,1.13,13.54,2.72,27.57c0.13,1.15,0.26,2.12,0.38,2.98c0.37,2.59,0.71,4.46,0.74,4.6c4.75,26.4-3.93,42.42-3.93,42.42
		c-1.66,3.07-2.89,4.34-4,7.87c-1.7,5.41-1.33,10.44-1.02,14.3c0.45,5.54,1.32,6.15,1.36,10.89c0.03,3.01,0.09,9.93-2.04,10.55
		C454.57,909.17,448.63,900.44,445.96,891.04z"/>
	
		<linearGradient id="SVGID_00000059295705801483325520000003797500136770196413_" gradientUnits="userSpaceOnUse" x1="442.2811" y1="399.3793" x2="442.2811" y2="796.6662">
		<stop  offset="9.166697e-03" style="stop-color:#788475"/>
		<stop  offset="0.1555" style="stop-color:#676964"/>
		<stop  offset="0.3238" style="stop-color:#585355"/>
		<stop  offset="0.5059" style="stop-color:#4D434B"/>
		<stop  offset="0.7098" style="stop-color:#473945"/>
		<stop  offset="0.9806" style="stop-color:#453643"/>
	</linearGradient>
	<path style="fill:url(#SVGID_00000059295705801483325520000003797500136770196413_);" d="M471.64,795.5
		c-23.93,2.06-54.23,2.59-58.21-8.85c-0.56-1.62-0.42-3-0.34-3.74c2.97-28.67,5.25-107.1,5.45-114.04
		c0.51-17.95,1.67-26.88,1.3-38.37c-0.35-11.13-1.58-29.41-13.56-80.61c-10.72-45.84-16.26-59.04-18.81-90.46
		c-0.89-10.95-1.08-19.99-1.1-25.96c3.03-15.19,13.78-27.58,28.09-32.17c16.65-5.34,35.4,0.76,46.47,15.32
		c17.42,49.79,26.18,92.34,30.94,123.29c3.55,23.07,6.28,41.36,6.34,66.67c0.07,28.2-3.23,45.08-13.28,106.21
		C481.97,730.73,477.3,759.4,471.64,795.5z"/>
</g>
</svg>
